<?xml version="1.0" encoding="utf-8"?>
<svg viewBox="34.233 -25.423 512 477.659" xmlns="http://www.w3.org/2000/svg">
  <polygon xmlns="http://www.w3.org/2000/svg" style="fill: rgb(255, 228, 51);" points="511.445 421.399 288.61 32.122 224.194 32.121 426.187 444.155" data-original="#ffac55" class="" transform="matrix(1, 0, 0, 1, 34.78801, -25.422867)"/>
  <polygon xmlns="http://www.w3.org/2000/svg" style="fill: rgb(255, 136, 0);" points="137.732 365.613 105.525 444.155 448.942 421.399 416.733 365.613" data-original="#ffce6e" class="" transform="matrix(1, 0, 0, 1, 34.78801, -25.422867)"/>
  <polygon xmlns="http://www.w3.org/2000/svg" style="fill: rgb(255, 228, 51);" points="128.28 421.871 256.401 199.956 224.193 144.169 183.71 145.227 31.651 477.659 479.236 477.659 511.445 421.871" data-original="#ff8a3b" class="" transform="matrix(1, 0, 0, 1, 34.78801, -25.422867)"/>
  <polygon xmlns="http://www.w3.org/2000/svg" style="fill: rgb(255, 136, 0);" points="224.193 32.122 -0.555 421.396 31.651 477.187 224.193 143.698 352.315 365.613 416.733 365.613" data-original="#ffa500" class="" transform="matrix(1, 0, 0, 1, 34.78801, -25.422867)"/>
  <g xmlns="http://www.w3.org/2000/svg" transform="matrix(1, 0, 0, 1, 34.78801, -25.422867)"/>
  <g xmlns="http://www.w3.org/2000/svg" transform="matrix(1, 0, 0, 1, 34.78801, -25.422867)"/>
  <g xmlns="http://www.w3.org/2000/svg" transform="matrix(1, 0, 0, 1, 34.78801, -25.422867)"/>
  <g xmlns="http://www.w3.org/2000/svg" transform="matrix(1, 0, 0, 1, 34.78801, -25.422867)"/>
  <g xmlns="http://www.w3.org/2000/svg" transform="matrix(1, 0, 0, 1, 34.78801, -25.422867)"/>
  <g xmlns="http://www.w3.org/2000/svg" transform="matrix(1, 0, 0, 1, 34.78801, -25.422867)"/>
  <g xmlns="http://www.w3.org/2000/svg" transform="matrix(1, 0, 0, 1, 34.78801, -25.422867)"/>
  <g xmlns="http://www.w3.org/2000/svg" transform="matrix(1, 0, 0, 1, 34.78801, -25.422867)"/>
  <g xmlns="http://www.w3.org/2000/svg" transform="matrix(1, 0, 0, 1, 34.78801, -25.422867)"/>
  <g xmlns="http://www.w3.org/2000/svg" transform="matrix(1, 0, 0, 1, 34.78801, -25.422867)"/>
  <g xmlns="http://www.w3.org/2000/svg" transform="matrix(1, 0, 0, 1, 34.78801, -25.422867)"/>
  <g xmlns="http://www.w3.org/2000/svg" transform="matrix(1, 0, 0, 1, 34.78801, -25.422867)"/>
  <g xmlns="http://www.w3.org/2000/svg" transform="matrix(1, 0, 0, 1, 34.78801, -25.422867)"/>
  <g xmlns="http://www.w3.org/2000/svg" transform="matrix(1, 0, 0, 1, 34.78801, -25.422867)"/>
  <g xmlns="http://www.w3.org/2000/svg" transform="matrix(1, 0, 0, 1, 34.78801, -25.422867)"/>
</svg>